<?xml version="1.0" standalone="no"?>
<!DOCTYPE svg PUBLIC "-//W3C//DTD SVG 20010904//EN"
 "http://www.w3.org/TR/2001/REC-SVG-20010904/DTD/svg10.dtd">
<svg version="1.0" xmlns="http://www.w3.org/2000/svg"
 width="512.000000pt" height="512.000000pt" viewBox="0 0 512.000000 512.000000"
 preserveAspectRatio="xMidYMid meet">
<metadata>
Created by potrace 1.14, written by Peter Selinger 2001-2017
</metadata>
<g transform="translate(0.000000,512.000000) scale(0.100000,-0.100000)"
fill="#000000" stroke="none">
<path d="M160 5107 c-44 -21 -67 -41 -91 -81 -22 -38 -23 -49 -23 -240 l-1
-201 2165 -2 c1722 -2 2170 -5 2189 -15 13 -7 30 -28 38 -46 12 -28 11 -37 -2
-66 -9 -19 -28 -39 -43 -45 -19 -7 -686 -10 -2177 -10 -1182 0 -2155 0 -2160
-1 -7 0 -10 -427 -10 -1277 0 -1274 0 -1278 21 -1318 13 -25 39 -51 68 -69
l47 -30 831 0 830 -1 45 53 c218 255 597 367 918 271 163 -49 278 -119 400
-243 l80 -81 825 1 c561 1 833 5 852 12 34 14 85 65 100 99 16 39 18 2574 2
2580 -6 2 -95 5 -197 6 -181 2 -186 3 -211 26 -42 39 -35 95 17 143 1 1 92 4
202 7 l200 6 -1 200 c0 189 -2 203 -23 240 -12 22 -38 52 -58 65 l-37 25
-2385 2 c-1808 1 -2392 -1 -2411 -10z m283 -179 c33 -17 46 -39 46 -78 0 -42
-16 -65 -54 -80 -52 -20 -99 4 -114 58 -21 73 55 136 122 100z m360 0 c46 -24
59 -70 36 -122 -28 -60 -119 -56 -151 6 -17 33 -18 39 -4 71 22 54 70 72 119
45z m360 0 c53 -28 63 -88 23 -135 -19 -22 -32 -28 -66 -28 -34 0 -46 6 -64
28 -24 30 -27 68 -8 104 22 41 72 55 115 31z m2265 -11 c41 -37 35 -101 -12
-139 -19 -16 -81 -17 -857 -18 l-836 0 -26 24 c-15 13 -29 35 -32 49 -8 31 19
85 48 97 12 5 385 8 858 7 791 -2 838 -3 857 -20z m-1603 -724 c158 -40 271
-88 390 -168 259 -172 427 -421 502 -745 21 -92 24 -345 4 -435 -16 -75 -46
-177 -67 -230 -63 -155 -194 -344 -252 -362 -20 -6 -1520 -10 -1648 -4 -66 3
-227 248 -290 438 -44 134 -57 226 -57 378 3 563 410 1039 973 1139 111 20
344 14 445 -11z m1422 3 l28 -24 2 -622 c1 -342 4 -624 6 -626 2 -2 114 107
248 241 220 219 249 245 278 245 18 0 40 -4 50 -10 10 -5 85 -77 167 -159
l149 -151 164 164 163 163 -26 26 c-58 58 -17 146 68 148 130 3 196 0 215 -11
37 -19 49 -65 47 -183 -2 -102 -3 -109 -29 -134 -36 -36 -92 -36 -124 1 l-22
26 -205 -204 c-127 -126 -214 -205 -229 -208 -44 -9 -79 17 -227 166 -80 80
-148 146 -151 146 -4 0 -126 -119 -272 -265 l-265 -266 -4 -72 c-2 -40 -1 -92
2 -117 l5 -45 85 0 85 0 5 107 c4 92 8 110 27 132 32 36 90 36 123 0 22 -22
25 -35 26 -120 1 -52 4 -100 7 -107 3 -9 29 -13 88 -12 l84 0 2 147 c2 164 11
191 67 206 40 11 59 6 87 -24 22 -24 24 -34 25 -167 2 -78 3 -147 3 -152 1 -6
36 -10 89 -10 l87 0 1 101 c2 116 16 149 68 162 40 11 59 6 87 -25 21 -22 24
-34 25 -122 0 -53 3 -102 6 -107 4 -5 44 -10 90 -9 l83 0 1 265 c1 146 2 275
3 288 2 36 44 72 86 72 39 0 84 -35 86 -67 1 -10 2 -139 3 -287 l1 -270 58 -1
c94 -3 140 -54 111 -124 -25 -59 -4 -58 -864 -56 -696 1 -788 3 -815 17 -46
24 -84 67 -95 107 -6 23 -10 355 -10 914 l0 879 29 29 c37 36 79 38 118 5z"/>
<path d="M1370 4019 c-236 -52 -429 -174 -580 -364 -232 -295 -269 -733 -89
-1064 34 -63 99 -160 108 -162 3 -1 348 -2 765 -3 l759 -1 37 50 c63 84 148
272 164 360 3 17 9 54 14 84 5 29 8 106 6 170 -13 529 -446 948 -981 949 -79
0 -146 -6 -203 -19z m-189 -273 c13 -13 46 -63 73 -111 40 -73 47 -93 42 -123
-7 -45 -23 -61 -69 -69 -53 -8 -77 12 -138 119 -62 108 -67 148 -24 185 35 31
85 30 116 -1z m440 11 c38 -29 40 -51 40 -342 l-1 -283 43 -25 c50 -30 77 -57
108 -112 33 -56 34 -181 2 -241 -69 -129 -229 -183 -357 -120 -166 81 -203
302 -73 429 20 19 49 40 66 47 23 9 31 19 31 39 0 14 2 149 3 299 l2 274 28
24 c31 26 81 32 108 11z m460 -16 c45 -46 42 -65 -39 -203 -44 -76 -68 -98
-106 -98 -42 0 -82 31 -91 70 -5 24 3 47 41 118 26 48 60 99 75 115 37 37 81
36 120 -2z m-1117 -378 c45 -25 91 -55 103 -66 32 -28 38 -70 17 -107 -20 -33
-44 -44 -86 -42 -29 2 -184 90 -210 119 -47 52 -7 143 63 143 20 0 63 -18 113
-47z m1390 16 c52 -62 31 -103 -93 -176 -69 -41 -106 -56 -130 -56 -67 2 -106
79 -69 135 22 33 196 128 235 128 23 0 38 -8 57 -31z m-1301 -418 c51 -3 85
-91 52 -138 -22 -32 -59 -39 -178 -38 -101 1 -109 2 -133 27 -29 29 -35 87
-13 115 29 35 101 44 272 34z m1282 -11 c23 -12 45 -49 45 -76 0 -30 -30 -72
-57 -81 -43 -15 -234 -9 -260 7 -58 37 -50 127 13 152 43 18 225 16 259 -2z"/>
<path d="M1513 2938 c-29 -33 -35 -57 -23 -93 30 -91 170 -65 170 31 0 71
-100 113 -147 62z"/>
<path d="M2440 1874 c-268 -46 -479 -231 -566 -499 -34 -103 -38 -270 -10
-383 111 -441 603 -668 1011 -467 253 126 399 359 398 640 0 61 -2 119 -5 130
-3 11 -8 34 -12 50 -13 50 -27 88 -54 140 -148 289 -447 442 -762 389z m268
-190 c141 -40 278 -158 340 -292 94 -206 52 -442 -110 -604 -210 -210 -541
-211 -750 -4 -105 103 -152 205 -164 348 -20 262 166 507 428 561 76 16 184
12 256 -9z"/>
<path d="M2491 1519 c-110 -20 -222 -112 -261 -216 -97 -253 93 -512 360 -490
279 23 421 342 254 570 -36 50 -114 106 -175 126 -47 15 -124 19 -178 10z"/>
<path d="M3280 633 c-31 -46 -154 -168 -192 -191 -15 -9 -28 -19 -28 -22 0 -3
89 -94 198 -202 168 -167 203 -198 240 -208 102 -27 200 30 221 128 10 51 7
82 -15 123 -11 23 -386 409 -396 409 -2 0 -14 -17 -28 -37z"/>
</g>
</svg>
